<?xml version="1.0" encoding="UTF-8"?>
<svg id="Layer_2" data-name="Layer 2" xmlns="http://www.w3.org/2000/svg" viewBox="0 0 737.05 187.48">
  <defs>
    <style>
      .cls-1 {
        fill: #fe5001;
      }

      .cls-1, .cls-2 {
        fill-rule: evenodd;
      }

      .cls-2 {
        fill: #1a0e1c;
      }
    </style>
  </defs>
  <g id="Layer_1-2" data-name="Layer 1">
    <g>
      <path class="cls-2" d="M606.74.99c-4.84,2.16-7.8,6.97-7.8,12.69,0,4.08,1.03,6.84,3.58,9.56,6.01,6.43,17.01,5.26,21.42-2.27,4.35-7.42,1.09-17.31-6.66-20.24-2.84-1.07-7.83-.95-10.54.26ZM278.65,14.96l-9.47,3.09v26.88l-9.1,2.23-9.1,2.23-.22,5.73-.22,5.73h18.54l.27,31.38c.29,34.13.4,35.13,4.83,44.18,5.98,12.21,19.39,19.08,34.7,17.76,4.32-.37,17.92-3.68,18.85-4.59.14-.14-.81-3.48-2.13-7.42-2.16-6.5-2.54-7.13-3.98-6.73-6.32,1.72-13.74,2.78-16.7,2.38-6.82-.93-11.9-6.47-13.96-15.2-.77-3.28-.99-15.79-1-57.48,0-42.14-.21-53.28-.94-53.26-.51.02-5.19,1.42-10.4,3.11ZM534.14,15l-9.47,3.02v26.88l-6.87,1.78c-3.78.98-7.96,2.07-9.28,2.43l-2.41.65v11.07h18.57v27.06c0,27.85.5,34.96,3.05,43.21,3.11,10.07,11.56,18.64,21.3,21.61,8.48,2.59,22.07,1.48,33-2.68l2.02-.77-2.33-6.52c-1.28-3.59-2.57-6.8-2.86-7.14s-2.23-.11-4.31.51c-6.5,1.93-13.47,2.3-16.85.89-6.04-2.52-10.1-8.5-11.46-16.85-.47-2.92-.77-24.49-.77-56.53,0-40.99-.2-51.79-.93-51.73-.51.04-5.19,1.44-10.4,3.1ZM203.83,44.03c-13.46,2.92-23.43,13.78-24.34,26.49-.65,9.15,3.16,17.36,10.91,23.48,2.28,1.8,10.19,6.23,17.58,9.85,18.11,8.87,21.11,11.65,21.09,19.52-.02,5.17-2.33,9.3-6.51,11.6-6.45,3.56-20.46,2.69-33.66-2.09-3.43-1.24-6.52-2.34-6.87-2.43-.62-.17-5.56,12.24-5.64,14.15-.04,1,4.13,3.01,11.21,5.4,6.74,2.27,16.69,3.71,25.97,3.75,7.29.03,9.44-.24,13.82-1.76,10.2-3.55,18.66-11.19,21.56-19.48,2.04-5.82,1.72-15.26-.7-20.42-4.07-8.72-9.27-12.86-27.89-22.18-13.65-6.83-18.09-10.37-19.46-15.51-1.16-4.35,0-8.33,3.29-11.22,5.61-4.93,13.65-5.02,32.69-.37,1.3.32,1.81-.56,4.01-6.82,2.91-8.29,3.21-7.71-5.12-9.95-11.23-3.02-23.69-3.81-31.95-2.01ZM388.04,44.21c-2.23.6-5.66,2.11-7.6,3.36-4.47,2.87-10.32,9.23-12.24,13.32l-1.48,3.14-.92-4.75c-1.09-5.6-3.22-10.75-5.42-13.1-1.44-1.53-2.25-1.68-9.12-1.68-4.15,0-7.71.17-7.91.37-.2.2.05,2.46.57,5.01,1.88,9.27,2.52,25.37,2.52,63.49v38.86l10.21-.21,10.21-.21.4-33.42c.39-32.24.46-33.58,2.06-37.88,3.2-8.59,8.05-14.02,15.37-17.18,2.77-1.2,8.34-1.48,16.32-.82l2.21.18,1.23-8.54c.68-4.7,1.02-8.76.76-9.04-.6-.63-8.68-2.12-11.19-2.05-1.05.03-3.73.54-5.97,1.14ZM439.72,44.17c-5.24,1.04-15.6,4.29-17.48,5.48-.87.55-.6,1.84,1.59,7.6,1.54,4.04,3.02,6.85,3.54,6.73.49-.12,3.77-1.04,7.28-2.06,16.91-4.9,30.52-2.29,36.48,7,4.01,6.25,4.52,10.01,4.52,33.38v21.09l-4.41,4.25c-5.85,5.64-12.8,9.06-19.37,9.53-5.95.43-9.52-.61-13.15-3.8-3.29-2.89-4.65-6.05-4.65-10.82,0-9.14,4.73-13.49,18-16.52,6.31-1.44,7.16-1.86,10.3-5,3.3-3.3,6.72-10.62,5.53-11.81-.27-.27-4.45.09-9.29.79-25.85,3.75-40.72,11.36-45.36,23.2-2.42,6.18-2.45,15.99-.06,22.07,5.34,13.62,22.49,21.53,39.44,18.19,8.28-1.63,13.26-4.23,19.38-10.11,4.09-3.94,5.14-4.63,5.14-3.4,0,2.48,3.67,9.12,5.93,10.73,1.78,1.27,3.28,1.49,10.01,1.49,7.22,0,7.88-.12,7.51-1.31-1.72-5.43-2.63-18.7-2.65-38.8-.01-12.05-.35-25.66-.76-30.23-1.13-12.76-4.68-21.18-11.92-28.27-7.77-7.61-16.66-10.61-31.14-10.5-5.11.04-11.6.53-14.41,1.09ZM297.41,45.33c0,1.92,4.93,9.86,7.37,11.87,3.51,2.9,6.49,3.63,14.72,3.64h6.87s0-8.17,0-8.17v-8.17h-14.48c-10.12,0-14.48.25-14.48.82ZM553.47,44.92c-.66.66,1.5,5.44,4.09,9.05,1.39,1.93,3.71,3.87,6,5.01,3.27,1.63,4.71,1.86,11.42,1.86h7.68l-.21-7.98-.21-7.98-14.16-.2c-7.79-.11-14.36,0-14.61.25ZM601.67,45c-.27.27-.49,24.5-.49,53.85v53.35h22.28V44.5h-10.65c-5.86,0-10.87.22-11.14.5ZM634.57,45.43c0,.51,8.93,24.75,19.87,53.86l19.89,52.93,11.51-.2,11.51-.2,19.84-52.73c10.91-29,19.85-53.15,19.87-53.66.02-.7-2.66-.93-11.05-.93h-11.09l-14.32,43.04-14.32,43.04-14.27-42.28c-7.85-23.25-14.48-42.62-14.74-43.04-.73-1.18-22.66-1.02-22.68.17Z"/>
      <path class="cls-1" d="M37.57,37.4c-16.22,16.38-30.54,31.48-31.82,33.53C1.59,77.63.03,83.45,0,92.28c-.02,5.73.35,8.98,1.36,11.98,2.83,8.41,5.52,11.92,21.83,28.46l15.88,16.1,14.19-14.21,14.19-14.21-10.03-10.16c-10.06-10.19-12.32-13.49-12.32-17.96s2.26-7.8,14.84-20.59c13.59-13.82,16.87-18.7,18.77-27.89,1.26-6.1.54-16.75-1.5-22.13-1.97-5.18-7.4-13.55-8.99-13.85-.66-.12-13.41,12.19-30.63,29.58ZM80.53,60.08l-14.16,14.23,10.59,10.67c5.82,5.87,10.94,11.62,11.37,12.78,1.15,3.1.95,7.74-.44,10.47-.67,1.32-6.84,8.13-13.7,15.13-13.48,13.75-16.13,17.65-18.28,26.77-2.81,11.96.39,25.87,7.94,34.5l2.5,2.85,30.7-30.94c33.17-33.43,33.81-34.21,36.56-45,1.55-6.09,1.04-16.47-1.11-22.52-2.56-7.2-5.29-10.6-21.93-27.26l-15.89-15.91-14.16,14.23Z"/>
    </g>
  </g>
</svg>