<?xml version="1.0" encoding="UTF-8"?>
<svg id="Layer_2" data-name="Layer 2" xmlns="http://www.w3.org/2000/svg" viewBox="0 0 134.51 179.66">
  <defs>
    <style>
      .cls-1 {
        fill: #fe5001;
        fill-rule: evenodd;
      }
    </style>
  </defs>
  <g id="Layer_1-2" data-name="Layer 1">
    <path class="cls-1" d="M37.57,29.58C21.35,45.97,7.03,61.06,5.75,63.12,1.59,69.81.03,75.62,0,84.46c-.02,5.73.35,8.98,1.36,11.98,2.83,8.41,5.52,11.92,21.83,28.46l15.88,16.1,14.19-14.21,14.19-14.21-10.03-10.16c-10.06-10.19-12.32-13.49-12.32-17.96s2.26-7.8,14.84-20.59c13.59-13.82,16.87-18.7,18.77-27.89,1.26-6.1.54-16.75-1.5-22.13C75.23,8.66,69.8.3,68.2,0c-.66-.12-13.41,12.19-30.63,29.58ZM80.53,52.26l-14.16,14.23,10.59,10.67c5.82,5.87,10.94,11.62,11.37,12.78,1.15,3.1.95,7.74-.44,10.47-.67,1.32-6.84,8.13-13.7,15.13-13.48,13.75-16.13,17.65-18.28,26.77-2.81,11.96.39,25.87,7.94,34.5l2.5,2.85,30.7-30.94c33.17-33.43,33.81-34.21,36.56-45,1.55-6.09,1.04-16.47-1.11-22.52-2.56-7.2-5.29-10.6-21.93-27.26l-15.89-15.91-14.16,14.23Z"/>
  </g>
</svg>